ply
format ascii 1.0
comment Exported from Acoular XML
element vertex 56
property float x
property float y
property float z
end_header
0.1455 -0.622278973 0.118706063
0.0668 -0.232605621 0.044371895
0.3769 -0.520219328 0.099237144
0.1523 -0.189777897 0.03620207
0.5509 -0.338889102 0.064646554
0.2146 -0.118070928 0.022523234
0.641 -0.106087023 0.020237182
0.2443 -0.028388102 0.00541532
0.0296 -0.455093683 0.086813763
0.1386 -0.2373206 0.045271326
0.0288 -0.086735964 0.01654577
0.3486 -0.3012675 0.057469849
0.2689 -0.071510512 0.01364136
0.0828 -0.041354293 0.007888753
0.6335 0.142922795 -0.027263981
0.2368 0.065616788 -0.012517072
0.5296 0.370224065 -0.070624017
0.1932 0.149602348 -0.028538174
0.345 0.541142046 -0.103228366
0.1202 0.210798844 -0.04021203
0.108 0.629646128 -0.120111423
0.0289 0.239972775 -0.045777255
0.4633 0.029075703 -0.005546487
0.2416 0.136145013 -0.02597105
0.0883 0.028289873 -0.005396582
0.3067 0.342425336 -0.065321126
0.0728 0.264137042 -0.050386835
0.0421 0.081333384 -0.015515173
-0.1455 0.622278973 -0.118706063
-0.0668 0.232605621 -0.044371895
-0.3769 0.520219328 -0.099237144
-0.1523 0.189777897 -0.03620207
-0.5509 0.338889102 -0.064646554
-0.2146 0.118070928 -0.022523234
-0.641 0.106087023 -0.020237182
-0.2443 0.028388102 -0.00541532
-0.0296 0.455093683 -0.086813763
-0.1386 0.2373206 -0.045271326
-0.0288 0.086735964 -0.01654577
-0.3486 0.3012675 -0.057469849
-0.2689 0.071510512 -0.01364136
-0.0828 0.041354293 -0.007888753
-0.6335 -0.142922795 0.027263981
-0.2368 -0.065616788 0.012517072
-0.5296 -0.370224065 0.070624017
-0.1932 -0.149602348 0.028538174
-0.345 -0.541142046 0.103228366
-0.1202 -0.210798844 0.04021203
-0.108 -0.629646128 0.120111423
-0.0289 -0.239972775 0.045777255
-0.4633 -0.029075703 0.005546487
-0.2416 -0.136145013 0.02597105
-0.0883 -0.028289873 0.005396582
-0.3067 -0.342425336 0.065321126
-0.0728 -0.264137042 0.050386835
-0.0421 -0.081333384 0.015515173
